<svg xmlns="http://www.w3.org/2000/svg" width="30" height="30" viewBox="0 0 30 30">
  <path id="Icon_simple-microsoftexcel" data-name="Icon simple-microsoftexcel" d="M29.441,4H19.391V5.894h2.962v3H19.391v.955h2.962v3H19.391v.982h2.962v2.838H19.391V17.8h2.962v2.844H19.391v1.137h2.962v2.861H19.391v2.087h10.05c.159-.048.291-.239.4-.57a2.838,2.838,0,0,0,.161-.81V4.346c0-.163-.055-.261-.161-.3A1.352,1.352,0,0,0,29.441,4Zm-1.3,20.644H23.316V21.785h4.821v2.858Zm0-4H23.316V17.8h4.821Zm0-3.983H23.316V13.84h4.821v2.825Zm0-3.82H23.316v-3h4.821v3h0Zm0-3.971H23.316V5.9h4.821V8.874ZM0,3.527V27.21l17.7,3.118v-30L0,3.537ZM10.491,21.443q-.1-.279-.948-2.372c-.561-1.4-.9-2.208-1-2.44H8.514l-1.9,4.6-2.538-.174,3.01-5.73L4.331,9.6l2.587-.139,1.71,4.483h.034l1.931-4.687,2.674-.172-3.184,6.2,3.281,6.325-2.874-.172Z" transform="translate(0 -0.328)" fill="#006a4d"/>
</svg>
