<svg width="512" height="512" xmlns="http://www.w3.org/2000/svg">

 <g>
  <title>background</title>
  <rect fill="none" id="canvas_background" height="402" width="582" y="-1" x="-1"/>
 </g>
 <g>
  <title>Layer 1</title>
  <path fill="#818a8f" id="svg_1" d="m456.83594,208.86719l-192.80078,0c-30.41797,0 -55.16407,24.74609 -55.16407,55.16406l0,104.75l-49.95312,35.67969c-3.94141,2.8125 -6.28125,7.35937 -6.28125,12.20312c0,4.84766 2.33984,9.39453 6.28125,12.20703l50.55469,36.10938c3.94922,26.57031 26.91406,47.01953 54.5625,47.01953l192.80078,0c30.41797,0 55.16406,-24.74609 55.16406,-55.16797l0,-192.80078c0,-30.41797 -24.74609,-55.16406 -55.16406,-55.16406zm-64.82813,210.77344c-3.53515,0 -6.26562,-1.1211 -7.0664,-4.17579l-6.10938,-21.37109l-36.79687,0l-6.10157,21.37109c-0.80468,3.05469 -3.53515,4.17578 -7.07031,4.17578c-5.625,0 -13.17578,-3.53125 -13.17578,-8.67187c0,-0.32422 0.16016,-0.96484 0.32031,-1.60938l31.01172,-101.0625c1.44531,-4.82031 7.39063,-7.07421 13.33594,-7.07421c6.10547,0 12.05078,2.2539 13.49609,7.07421l31.01172,101.0625c0.16016,0.64454 0.32031,1.125 0.32031,1.60938c0,4.97656 -7.55078,8.67187 -13.17578,8.67187l0,0.00001zm0,0"/>
  <path fill="#818a8f" id="svg_2" d="m346.375,377.70313l27.96094,0l-13.98438,-49.32422l-13.97656,49.32422zm0,0"/>
  <path fill="#818a8f" id="svg_3" d="m178.87109,264.03125c0,-20.14062 7.04297,-38.65625 18.77344,-53.25391c-17.11328,0 -32.99219,-5.35546 -46.08203,-14.45312c-13.08984,9.10156 -28.96875,14.45312 -46.08594,14.45312c-4.66797,0 -8.45703,-3.78906 -8.45703,-8.46093s3.78906,-8.45703 8.45703,-8.45703c11.98828,0 23.20703,-3.32032 32.8125,-9.07032c-11.58593,-12.5039 -19.28906,-28.64843 -21.15234,-46.51562l-11.65625,0c-4.67188,0 -8.46094,-3.78516 -8.46094,-8.45703s3.78906,-8.46094 8.46094,-8.46094l37.62891,0l0,-20.53906c0,-4.67578 3.78515,-8.46094 8.45703,-8.46094s8.45703,3.78516 8.45703,8.46094l0,20.53906l37.6289,0c4.67188,0 8.46094,3.78906 8.46094,8.46094s-3.78906,8.45703 -8.46094,8.45703l-11.65625,0c-1.86328,17.86719 -9.5664,34.01172 -21.15234,46.51562c9.60156,5.75782 20.82422,9.07032 32.80859,9.07032c4.46485,0 8.11329,3.46093 8.42969,7.84765c15.21485,-14.15625 35.58594,-22.83984 57.95703,-22.83984l39.09375,0l0,-35.64844l49.95313,-35.67969c3.9375,-2.8125 6.27734,-7.35937 6.27734,-12.20312c0,-4.84766 -2.33984,-9.39453 -6.27734,-12.20703l-50.55469,-36.10938c-3.95312,-26.57031 -26.91797,-47.01953 -54.56641,-47.01953l-192.79687,0c-30.42188,0 -55.16797,24.74609 -55.16797,55.16406l0,192.80469c0,30.41797 24.74609,55.16406 55.16797,55.16406l123.70312,0l0,-39.10156zm0,0"/>
  <path fill="#818a8f" id="svg_4" d="m151.5625,174.21875c9.25781,-9.60547 15.54297,-22.07812 17.38281,-35.94141l-34.76172,0c1.83985,13.86329 8.12891,26.33594 17.37891,35.94141zm0,0"/>
 </g>
</svg>