<svg xmlns="http://www.w3.org/2000/svg" width="18" height="18" viewBox="0 0 18 18">
  <path id="Icon_ionic-ios-checkbox" data-name="Icon ionic-ios-checkbox" d="M21,4.5H6A1.5,1.5,0,0,0,4.5,6V21A1.5,1.5,0,0,0,6,22.5H21A1.5,1.5,0,0,0,22.5,21V6A1.5,1.5,0,0,0,21,4.5Zm-2.461,6.3-6.267,6.3h0a.847.847,0,0,1-.544.258.821.821,0,0,1-.548-.267L8.55,14.466a.187.187,0,0,1,0-.267l.834-.834a.181.181,0,0,1,.262,0l2.081,2.081,5.719-5.761a.185.185,0,0,1,.131-.056h0a.17.17,0,0,1,.131.056l.82.848A.185.185,0,0,1,18.539,10.8Z" transform="translate(-4.5 -4.5)" fill="#006a4d"/>
</svg>
