<svg xmlns="http://www.w3.org/2000/svg" width="20" height="20" viewBox="0 0 20 20">
  <path id="Icon_awesome-calendar-alt" data-name="Icon awesome-calendar-alt" d="M0,18.125A2.023,2.023,0,0,0,2.143,20H17.857A2.023,2.023,0,0,0,20,18.125V7.5H0Zm14.286-7.656A.507.507,0,0,1,14.821,10h1.786a.507.507,0,0,1,.536.469v1.563a.507.507,0,0,1-.536.469H14.821a.507.507,0,0,1-.536-.469Zm0,5A.507.507,0,0,1,14.821,15h1.786a.507.507,0,0,1,.536.469v1.562a.507.507,0,0,1-.536.469H14.821a.507.507,0,0,1-.536-.469Zm-5.714-5A.507.507,0,0,1,9.107,10h1.786a.507.507,0,0,1,.536.469v1.563a.507.507,0,0,1-.536.469H9.107a.507.507,0,0,1-.536-.469Zm0,5A.507.507,0,0,1,9.107,15h1.786a.507.507,0,0,1,.536.469v1.562a.507.507,0,0,1-.536.469H9.107a.507.507,0,0,1-.536-.469Zm-5.714-5A.507.507,0,0,1,3.393,10H5.179a.507.507,0,0,1,.536.469v1.563a.507.507,0,0,1-.536.469H3.393a.507.507,0,0,1-.536-.469Zm0,5A.507.507,0,0,1,3.393,15H5.179a.507.507,0,0,1,.536.469v1.562a.507.507,0,0,1-.536.469H3.393a.507.507,0,0,1-.536-.469Zm15-12.969H15.714V.625A.676.676,0,0,0,15,0H13.571a.676.676,0,0,0-.714.625V2.5H7.143V.625A.676.676,0,0,0,6.429,0H5a.676.676,0,0,0-.714.625V2.5H2.143A2.023,2.023,0,0,0,0,4.375V6.25H20V4.375A2.023,2.023,0,0,0,17.857,2.5Z" fill="#69be28"/>
</svg>
