<svg xmlns="http://www.w3.org/2000/svg" width="69" height="69" viewBox="0 0 69 69">
  <path id="Icon_metro-warning" data-name="Icon metro-warning" d="M37.071,8.179,65.985,65.807H8.157L37.071,8.179Zm0-6.251c-1.487,0-2.974,1-4.1,3.009L3.517,63.635c-2.256,4.011-.337,7.294,4.266,7.294H66.359c4.6,0,6.522-3.282,4.265-7.294h0L41.173,4.937c-1.128-2.006-2.615-3.009-4.1-3.009Zm4.313,56.062a4.313,4.313,0,1,1-4.313-4.312A4.313,4.313,0,0,1,41.383,57.991Zm-4.313-8.625a4.313,4.313,0,0,1-4.313-4.312V32.116a4.313,4.313,0,0,1,8.625,0V45.053A4.313,4.313,0,0,1,37.071,49.366Z" transform="translate(-2.571 -1.928)" fill="#dc8e27"/>
</svg>
